<svg width="13" height="14" viewBox="0 0 13 14" fill="none" xmlns="http://www.w3.org/2000/svg">
<path d="M5 13.5009V9.99589C5 9.75089 5.25 9.50089 5.5 9.50089H7.5C7.75 9.50089 8 9.75089 8 10.0009V13.5009C8 13.6335 8.05268 13.7607 8.14645 13.8544C8.24022 13.9482 8.36739 14.0009 8.5 14.0009H12.5C12.6326 14.0009 12.7598 13.9482 12.8536 13.8544C12.9473 13.7607 13 13.6335 13 13.5009V6.50089C13.0001 6.43519 12.9873 6.3701 12.9622 6.30936C12.9372 6.24862 12.9004 6.19341 12.854 6.14689L11.5 4.79389V1.50089C11.5 1.36829 11.4473 1.24111 11.3536 1.14734C11.2598 1.05357 11.1326 1.00089 11 1.00089H10C9.86739 1.00089 9.74022 1.05357 9.64645 1.14734C9.55268 1.24111 9.5 1.36829 9.5 1.50089V2.79389L6.854 0.146894C6.80756 0.100331 6.75238 0.0633877 6.69163 0.0381812C6.63089 0.0129748 6.56577 0 6.5 0C6.43423 0 6.36911 0.0129748 6.30837 0.0381812C6.24762 0.0633877 6.19245 0.100331 6.146 0.146894L0.146001 6.14689C0.099599 6.19341 0.0628209 6.24862 0.0377692 6.30936C0.0127175 6.3701 -0.00011655 6.43519 7.97495e-07 6.50089V13.5009C7.97495e-07 13.6335 0.0526792 13.7607 0.146447 13.8544C0.240216 13.9482 0.367393 14.0009 0.500001 14.0009H4.5C4.63261 14.0009 4.75979 13.9482 4.85355 13.8544C4.94732 13.7607 5 13.6335 5 13.5009Z" fill="#8952FF"/>
</svg>
