<svg width="14" height="14" viewBox="0 0 14 14" fill="none" xmlns="http://www.w3.org/2000/svg">
<path d="M7 0C3.1402 0 0 3.1402 0 7C0 10.8598 3.1402 14 7 14C10.8598 14 14 10.8598 14 7C14 3.1402 10.8598 0 7 0ZM7.7 11.2H6.3V9.8H7.7V11.2ZM8.3832 7.7805C8.246 7.8911 8.1137 7.9968 8.0087 8.1018C7.7231 8.3867 7.7007 8.6457 7.7 8.6569V8.75H6.3V8.6331C6.3 8.5505 6.3203 7.8092 7.0182 7.1113C7.1547 6.9748 7.3241 6.8362 7.5019 6.692C8.0157 6.2755 8.3531 5.9717 8.3531 5.5531C8.34497 5.19947 8.19875 4.86308 7.94574 4.61588C7.69273 4.36869 7.35303 4.23034 6.99931 4.23043C6.64559 4.23052 6.30595 4.36905 6.05307 4.61637C5.80019 4.8637 5.65415 5.20017 5.6462 5.5538H4.2462C4.2462 4.0355 5.4817 2.8 7 2.8C8.5183 2.8 9.7538 4.0355 9.7538 5.5538C9.7538 6.6717 8.9285 7.3388 8.3832 7.7805Z" fill="#D6D6D6"/>
</svg>
