<svg width="15" height="17" viewBox="0 0 15 17" fill="none" xmlns="http://www.w3.org/2000/svg">
<path fill-rule="evenodd" clip-rule="evenodd" d="M0.000893772 11.5006C0.000893772 11.6332 0.0535722 11.7604 0.14734 11.8542C0.241109 11.948 0.368286 12.0006 0.500894 12.0006H12.2939L9.14689 15.1466C9.05301 15.2405 9.00026 15.3679 9.00026 15.5006C9.00026 15.6334 9.05301 15.7607 9.14689 15.8546C9.24078 15.9485 9.36812 16.0013 9.50089 16.0013C9.63367 16.0013 9.76101 15.9485 9.85489 15.8546L13.8549 11.8546C13.9015 11.8082 13.9384 11.753 13.9636 11.6923C13.9888 11.6315 14.0018 11.5664 14.0018 11.5006C14.0018 11.4349 13.9888 11.3697 13.9636 11.309C13.9384 11.2483 13.9015 11.1931 13.8549 11.1466L9.85489 7.14663C9.76101 7.05274 9.63367 7 9.50089 7C9.36812 7 9.24078 7.05274 9.14689 7.14663C9.05301 7.24052 9.00026 7.36786 9.00026 7.50063C9.00026 7.63341 9.05301 7.76075 9.14689 7.85463L12.2939 11.0006H0.500894C0.368286 11.0006 0.241109 11.0533 0.14734 11.1471C0.0535722 11.2408 0.000893772 11.368 0.000893772 11.5006ZM14.0009 4.50063C14.0009 4.63324 13.9482 4.76042 13.8544 4.85419C13.7607 4.94795 13.6335 5.00063 13.5009 5.00063H1.70789L4.85489 8.14663C4.90138 8.19312 4.93826 8.24831 4.96342 8.30905C4.98858 8.36979 5.00153 8.43489 5.00153 8.50063C5.00153 8.56637 4.98858 8.63148 4.96342 8.69221C4.93826 8.75295 4.90138 8.80814 4.85489 8.85463C4.80841 8.90112 4.75322 8.938 4.69248 8.96315C4.63174 8.98831 4.56664 9.00126 4.50089 9.00126C4.43515 9.00126 4.37005 8.98831 4.30931 8.96315C4.24857 8.938 4.19338 8.90112 4.14689 8.85463L0.146894 4.85463C0.100331 4.80819 0.0633877 4.75301 0.0381812 4.69227C0.0129748 4.63152 0 4.5664 0 4.50063C0 4.43486 0.0129748 4.36974 0.0381812 4.309C0.0633877 4.24825 0.100331 4.19308 0.146894 4.14663L4.14689 0.146632C4.24078 0.052745 4.36812 0 4.50089 0C4.63367 0 4.76101 0.052745 4.85489 0.146632C4.94878 0.240518 5.00153 0.367856 5.00153 0.500632C5.00153 0.633407 4.94878 0.760745 4.85489 0.854632L1.70789 4.00063H13.5009C13.6335 4.00063 13.7607 4.05331 13.8544 4.14708C13.9482 4.24085 14.0009 4.36802 14.0009 4.50063Z" fill="#8852FE"/>
</svg>
